<svg width="240" height="240" viewBox="0 0 240 240" fill="none" xmlns="http://www.w3.org/2000/svg">
<path d="M62 108.308H169.453L166.741 102.203H159.989H68.1053C68.7158 96.5046 73.4982 92.0274 79.2982 92.0274H102.41L101.087 85.9222H79.2982C69.7333 85.9221 62 93.6555 62 103.22V108.308Z" fill="white"/>
<path d="M169.86 187.677H70.1404C65.6632 187.677 62 184.013 62 179.536V102.203H169.86C174.337 102.203 178 105.866 178 110.343V179.536C178 184.013 174.337 187.677 169.86 187.677V187.677ZM68.1053 108.308V179.536C68.1053 180.656 69.0211 181.571 70.1404 181.571H169.86C170.979 181.571 171.895 180.656 171.895 179.536V110.343C171.895 109.224 170.979 108.308 169.86 108.308H68.1053Z" fill="white"/>
<g clip-path="url(#clip0_24_79)">
<path d="M165.988 107.521H167.733L168.596 106.004C171.452 100.983 173.082 95.1743 173.082 88.9945C173.082 69.953 157.633 54.5212 138.582 54.5212C119.531 54.5212 104.082 69.953 104.082 88.9945C104.082 95.1743 105.712 100.983 108.568 106.004L109.431 107.521H111.176H165.988Z" fill="url(#paint0_linear_24_79)" stroke="white" stroke-width="6"/>
<path d="M115.995 86.2522L139.261 87.9282L142.598 94.885L127.087 93.7676L133.761 107.681L126.005 107.122L115.995 86.2522Z" fill="#E5ECF2"/>
<path d="M133.761 107.681L127.191 93.9846L134.921 94.4889L138.206 101.337L133.761 107.681Z" fill="white"/>
<path d="M116.068 86.4042L120.476 79.9843L143.774 81.7256L139.365 88.1454L116.068 86.4042Z" fill="#BFC8DB"/>
<path d="M139.268 87.9426L143.701 81.5735L147.01 88.4722L142.577 94.8413L139.268 87.9426Z" fill="white"/>
<path d="M140.343 74.573L150.354 95.4433L157.805 96.1479L147.794 75.2777L140.343 74.573Z" fill="#E5ECF2"/>
<path d="M152.213 68.8796L147.794 75.2777L157.805 96.148L162.224 89.7499L152.213 68.8796Z" fill="white"/>
<path d="M144.673 68.3784L152.286 69.0318L148.03 75.3786L140.416 74.7252L144.673 68.3784Z" fill="#BFC8DB"/>
</g>
<path fill-rule="evenodd" clip-rule="evenodd" d="M68.1055 108.02V180.199C68.1055 181.318 69.0213 182.234 70.1406 182.234H169.86C170.979 182.234 171.895 181.318 171.895 180.199V159.915H134.738C125.023 159.915 117.148 152.039 117.148 142.325C117.148 132.61 125.023 124.734 134.738 124.734H171.895V110.055C171.895 108.936 170.979 108.02 169.86 108.02H68.1055ZM171.895 130.439H134.738C128.174 130.439 122.853 135.76 122.853 142.325C122.853 148.889 128.174 154.21 134.738 154.21H171.895V130.439ZM144.721 142.325C144.721 145.213 142.38 147.554 139.492 147.554C136.604 147.554 134.262 145.213 134.262 142.325C134.262 139.436 136.604 137.095 139.492 137.095C142.38 137.095 144.721 139.436 144.721 142.325Z" fill="white"/>
<defs>
<linearGradient id="paint0_linear_24_79" x1="138.582" y1="57.5212" x2="138.582" y2="104.521" gradientUnits="userSpaceOnUse">
<stop stop-color="#1B9FFF"/>
<stop offset="1" stop-color="#C640C9"/>
</linearGradient>
<clipPath id="clip0_24_79">
<rect width="75.1148" height="50.3934" fill="white" transform="translate(99.082 51.5212)"/>
</clipPath>
</defs>
</svg>
