<svg width="240" height="240" viewBox="0 0 240 240" fill="none" xmlns="http://www.w3.org/2000/svg">
<path d="M121.582 164.121L70 134.355V74.7852L121.582 45L173.164 74.7852V134.336L121.582 164.121ZM73.9062 132.09L121.582 159.609L169.258 132.09V77.0508L121.582 49.5313L73.9062 77.0508V132.09V132.09Z" fill="white" fill-opacity="0.49"/>
<path d="M121.348 158.172L75.0195 131.414V77.8984L121.348 51.1406L167.676 77.8984V131.395L121.348 158.172ZM78.9258 129.148L121.348 153.641L163.77 129.148V80.1641L121.348 55.6719L78.9258 80.1641V129.148Z" fill="white"/>
<path d="M78.9258 129.477L121.348 153.969L163.77 129.477V79.4922L121.348 55L78.9258 79.4922V129.477Z" fill="black"/>
<path d="M97.9675 123.338C93.6381 117.277 95.8894 111.735 95.8894 111.735C94.8503 113.64 94.6771 115.025 94.8503 119.009C93.8112 114.679 93.6257 109.657 94.8503 103.942C95.6296 100.305 97.1016 94.2441 99.0066 90.7805C100.433 88.1876 101.951 86.3356 103.163 85.2388C103.163 85.2388 101.777 84.8925 99.353 87.6633L99.3587 87.638C99.6168 86.5087 100.227 83.8404 101.258 82.1216C102.297 79.6971 103.392 78.1406 104.375 77.0994C107.319 73.9822 113.38 69.826 108.531 69.826C109.936 68.7457 112.356 66.6891 118.922 66.4246C119.373 66.4064 119.442 65.4965 117.883 65.1501C121.866 64.4574 123.619 66.3842 124.291 66.4246C130.53 66.8002 134.902 68.7836 136.413 69.826C131.564 70.6918 137.625 73.4627 139.877 77.0994C141.38 79.5279 142.648 81.6021 143.34 83.507C143.34 83.507 140.743 81.6021 139.184 81.6021C141.608 83.8534 140.569 85.412 142.821 88.8756C146.124 93.9576 148.882 97.8808 150.094 103.942C151.064 108.791 152.346 117.796 149.921 120.914C150.441 118.662 149.228 114.047 146.284 112.947C147.497 113.4 149.963 116.238 148.709 121.953C147.455 127.667 142.128 129.919 137.972 132.516C129.571 137.767 126.196 140.136 121.866 143.6C119.268 140.31 107.319 135.634 104.721 125.589C104.156 123.404 102.99 126.109 104.029 129.226C103.245 128.811 100.907 127.454 97.9675 123.338Z" fill="url(#paint0_linear_24_363)"/>
<path d="M122.732 73.2895C118.298 73.2895 114.996 74.5595 113.9 75.1944C114.823 74.0976 117.883 71.9041 122.732 71.9041C127.581 71.9041 130.525 74.0976 131.391 75.1944C130.352 74.5595 127.165 73.2895 122.732 73.2895Z" fill="white"/>
<path d="M108.012 87.1438C108.753 85.2907 111.187 82.5257 112.341 81.6021C113.207 82.2948 117.19 84.3729 122.559 84.3729C127.927 84.3729 131.217 82.4679 133.122 81.6021C134.681 82.9875 136.413 85.2388 137.452 87.6633C138.714 90.6073 138.26 93.9554 137.971 95.2831C137.452 93.0318 136.24 90.6073 134.162 88.1828C133.815 89.2219 132.257 90.0661 131.391 90.6073C130.005 91.4732 127.754 92.3391 126.888 92.3391C125.652 92.3391 124.81 91.9928 123.944 91.1269C124.29 91.6464 124.29 92.3391 123.944 92.8586C123.598 93.3782 121.693 93.5513 121.173 92.8586C120.82 92.3874 120.947 91.6756 121.065 91.3233C120.779 91.6789 119.921 92.3391 118.402 92.3391C117.71 92.3391 115.458 91.5425 113.9 90.6073C112.464 89.7461 111.475 88.7601 110.609 88.0096C110.609 88.0096 108.012 91.4732 106.973 95.2831C107.03 93.4936 106.626 90.6073 108.012 87.1438Z" fill="white"/>
<path d="M111.302 94.0708L112.341 91.4731C112.63 91.5309 113.45 91.7849 114.419 92.339C115.389 92.8932 116.555 93.7245 117.017 94.0708H111.302Z" fill="white"/>
<path d="M133.815 94.0708L132.776 91.4731C132.487 91.5309 131.668 91.7849 130.698 92.339C129.728 92.8932 128.562 93.7245 128.1 94.0708H133.815Z" fill="white"/>
<path d="M110.436 97.1878C109.882 97.8805 109.628 98.7464 109.57 99.0927C109.917 98.5732 110.09 98.4 111.302 97.5341C112.272 96.8414 113.438 96.6682 113.9 96.6682C113.496 97.0723 112.653 98.0536 112.514 98.7464C112.376 99.4391 112.803 100.19 113.034 100.478C112.803 100.594 112.203 101.032 111.648 101.864C110.956 102.903 110.09 104.288 110.09 106.193C110.09 107.717 110.783 109.945 111.129 110.869C109.686 109.137 106.661 105.396 106.107 104.288C105.414 102.903 105.587 100.824 107.319 98.4C108.704 96.4604 111.244 95.7446 112.341 95.6292C111.937 95.8601 110.99 96.495 110.436 97.1878Z" fill="white"/>
<path d="M134.681 97.1878C135.235 97.8805 135.489 98.7464 135.547 99.0927C135.201 98.5732 135.027 98.4 133.815 97.5341C132.845 96.8414 131.679 96.6682 131.217 96.6682C131.622 97.0723 132.464 98.0536 132.603 98.7464C132.741 99.4391 132.314 100.19 132.083 100.478C132.314 100.594 132.915 101.032 133.469 101.864C134.161 102.903 135.027 104.288 135.027 106.193C135.027 107.717 134.335 109.945 133.988 110.869C135.431 109.137 138.456 105.396 139.01 104.288C139.703 102.903 139.53 100.824 137.798 98.4C136.413 96.4604 133.873 95.7446 132.776 95.6292C133.18 95.8601 134.127 96.495 134.681 97.1878Z" fill="white"/>
<path fill-rule="evenodd" clip-rule="evenodd" d="M120.481 95.2832L122.559 98.2272C122.783 97.9027 123.06 97.4768 123.335 97.0529C123.696 96.4967 124.055 95.9441 124.29 95.6295C124.983 94.7059 126.888 94.5905 128.447 95.8027C130.005 97.015 131.391 98.5736 131.391 99.4395C131.391 100.132 130.005 101.691 129.313 102.383C129.659 102.037 130.456 101.344 130.871 101.344C131.391 101.344 132.257 102.037 132.949 102.903C133.642 103.769 134.162 104.808 133.815 107.925C133.538 110.419 132.314 112.774 131.737 113.64C132.141 112.255 132.915 109.172 132.776 107.925C132.603 106.367 130.005 105.501 128.62 105.154C127.234 104.808 124.983 104.462 122.559 104.462C120.407 104.462 119.21 104.598 117.878 104.75L117.878 104.75C117.71 104.769 117.539 104.789 117.363 104.808C115.805 104.981 112.687 106.02 112.168 107.925C111.752 109.449 112.687 112.255 113.207 113.467C112.803 112.716 111.925 111.008 111.648 110.177C111.302 109.137 110.783 106.367 111.129 104.981C111.475 103.596 113.207 101.344 113.9 101.344C114.454 101.344 115.285 101.922 115.632 102.21C114.997 101.46 113.761 99.7512 113.9 98.9199C114.073 97.8809 116.497 95.8027 117.536 95.2832C118.368 94.8676 119.615 94.7637 120.481 95.2832ZM116.671 99.6125C116.671 100.305 117.71 101.287 118.229 101.691C118.229 101.549 118.187 101.329 118.145 101.105C118.101 100.872 118.056 100.636 118.056 100.478C118.056 99.9588 118.749 99.2661 119.442 99.4393C119.996 99.5778 121.173 100.652 121.693 101.171C121.346 100.305 120.55 98.4002 120.134 97.7075C119.719 97.0148 118.576 97.3612 117.883 97.8807C117.099 98.4685 116.671 98.9198 116.671 99.6125ZM127.061 101.691C127.581 101.287 128.62 100.305 128.62 99.6125C128.62 98.9198 128.192 98.4685 127.408 97.8807C126.715 97.3612 125.572 97.0148 125.156 97.7075C124.741 98.4002 123.944 100.305 123.598 101.171C124.117 100.652 125.295 99.5778 125.849 99.4393C126.542 99.2661 127.235 99.9588 127.235 100.478C127.235 100.636 127.19 100.872 127.146 101.105C127.103 101.329 127.061 101.549 127.061 101.691Z" fill="white"/>
<path d="M114.593 113.813C114.304 113.467 113.692 112.462 113.553 111.215C113.38 109.657 113.38 108.271 113.553 107.752C113.727 107.232 114.073 106.713 114.939 106.713C115.685 106.713 116.303 107.099 116.459 107.538C116.465 107.041 116.63 106.073 117.537 105.847C118.922 105.501 119.268 106.366 119.268 106.713C119.268 107.059 119.268 105.327 120.827 105.327C122.074 105.327 122.501 106.02 122.559 106.366C122.616 106.02 122.974 105.327 123.944 105.327C124.914 105.327 125.618 106.366 125.849 106.886C125.734 106.424 125.745 105.535 126.715 105.674C127.927 105.847 128.62 106.886 128.62 107.752C128.62 107.232 128.793 106.713 130.005 106.713C131.91 106.713 131.737 108.964 131.737 109.657C131.737 110.35 130.871 113.813 130.525 113.813C130.179 113.813 128.793 110.523 128.62 110.176C128.447 109.83 128.1 110.35 126.888 110.003C125.918 109.726 125.56 109.426 125.503 109.31C125.503 109.426 125.26 109.657 124.291 109.657C123.321 109.657 122.732 109.426 122.559 109.31C122.386 109.426 121.797 109.657 120.827 109.657C119.857 109.657 119.384 109.426 119.268 109.31C119.326 109.484 119.234 109.865 118.402 110.003C117.571 110.142 116.786 110.176 116.497 110.176C116.209 111.1 115.424 113.12 114.593 113.813Z" fill="white"/>
<path d="M112.861 122.299C112.861 120.359 113.669 116.988 114.073 115.545C113.727 119.874 114.073 123.684 115.286 125.243C116.498 126.801 120.654 126.974 122.732 126.974C124.81 126.974 128.101 126.974 129.833 125.243C131.218 123.857 131.218 118.2 131.045 115.545C131.333 116.641 131.911 119.528 131.911 122.299C131.911 125.762 130.698 127.321 129.14 128.36C127.581 129.399 123.944 129.745 122.732 129.745C121.52 129.745 118.23 130.092 115.805 128.36C113.381 126.628 112.861 124.723 112.861 122.299Z" fill="white"/>
<path d="M114.939 122.299C114.939 121.19 115.286 120.336 115.459 120.047C115.459 121.156 116.729 122.703 117.364 123.338C117.537 123.28 117.973 123.252 118.403 123.338C119.269 123.511 119.961 123.684 120.135 124.03C120.827 123.684 122.04 123.684 122.732 124.03C123.148 123.753 124.637 123.915 125.33 124.03C125.503 123.857 126.023 123.476 126.715 123.338C127.408 123.199 127.812 123.395 127.928 123.511L129.659 120.047C129.775 120.567 130.04 121.779 130.179 122.472C130.352 123.338 129.833 124.377 129.14 124.896C128.586 125.312 127.985 125.07 127.754 124.896C127.523 125.243 126.889 125.935 126.196 125.935C125.503 125.935 125.33 125.589 125.33 125.416C125.157 125.705 124.637 126.282 123.944 126.282C123.252 126.282 122.848 126.051 122.732 125.935C122.617 126.051 122.213 126.282 121.52 126.282C120.827 126.282 120.308 125.705 120.135 125.416C119.961 125.647 119.476 126.109 118.922 126.109C118.368 126.109 117.768 125.531 117.537 125.243C117.306 125.358 116.671 125.451 115.978 124.896C115.112 124.204 114.939 123.684 114.939 122.299Z" fill="white"/>
<path d="M117.537 131.997C116.013 131.304 114.824 129.745 114.42 129.052C115.459 129.745 118.576 131.131 122.732 131.131C126.889 131.131 129.775 129.745 130.698 129.052C130.121 129.803 128.759 131.442 127.928 131.997C126.889 132.689 124.118 133.036 122.732 133.036C121.347 133.036 119.442 132.862 117.537 131.997Z" fill="white"/>
<path d="M119.961 112.081C121.587 112.081 122.486 113.609 122.732 114.372C123.102 113.667 123.471 112.081 125.318 112.081C127.165 112.081 128.089 113.667 127.904 115.782C127.674 118.416 124.21 122.126 122.732 122.126C121.254 122.126 117.19 118.249 117.19 115.782C117.19 113.667 117.929 112.081 119.961 112.081Z" fill="white"/>
<path d="M22.9883 139.199H65.9961L60.2539 136.738L42.4023 129.102V112.656H22.9883L25.2734 114.98L36.6797 126.504L25.3906 136.738L22.9883 139.199Z" fill="#0068C4"/>
<path d="M42 105V129H200V105H42Z" fill="url(#paint1_linear_24_363)"/>
<path d="M206.016 126.504L217.422 114.98L219.707 112.656H200.293V129.102L182.441 136.738L176.699 139.199H219.707L217.305 136.738L206.016 126.504Z" fill="#A327B9"/>
<path d="M193.828 129.395H176.523V139.492L200.137 129.395H193.828ZM42.2266 129.395L65.8203 139.492V129.395H48.5156H42.2266Z" fill="#004078"/>
<defs>
<linearGradient id="paint0_linear_24_363" x1="122.656" y1="65" x2="122.656" y2="143.6" gradientUnits="userSpaceOnUse">
<stop stop-color="#1B9FFF"/>
<stop offset="1" stop-color="#C640C9"/>
</linearGradient>
<linearGradient id="paint1_linear_24_363" x1="38.095" y1="104.953" x2="197.155" y2="144.689" gradientUnits="userSpaceOnUse">
<stop stop-color="#1B9FFF"/>
<stop offset="1" stop-color="#C640C9"/>
</linearGradient>
</defs>
</svg>
