<svg width="240" height="240" viewBox="0 0 240 240" fill="none" xmlns="http://www.w3.org/2000/svg">
<circle cx="142" cy="137" r="57" fill="url(#paint0_linear_24_128)" stroke="white" stroke-width="6"/>
<path d="M112.87 159.546C107.768 152.404 110.421 145.874 110.421 145.874C109.196 148.119 108.992 149.751 109.196 154.444C107.972 149.343 107.754 143.425 109.196 136.691C110.115 132.406 111.849 125.264 114.094 121.183C115.774 118.128 117.563 115.945 118.991 114.653C118.991 114.653 117.359 114.245 114.502 117.51L114.509 117.48C114.813 116.149 115.531 113.005 116.747 110.98C117.971 108.123 119.261 106.289 120.42 105.062C123.889 101.389 131.031 96.4919 125.317 96.4919C126.972 95.219 129.824 92.7957 137.561 92.4841C138.092 92.4626 138.173 91.3904 136.336 90.9823C141.03 90.1661 143.095 92.4364 143.886 92.4841C151.238 92.9267 156.389 95.2637 158.17 96.4919C152.457 97.5122 159.599 100.777 162.252 105.062C164.023 107.924 165.516 110.368 166.333 112.612C166.333 112.612 163.272 110.368 161.435 110.368C164.292 113.021 163.068 114.857 165.721 118.938C169.613 124.926 172.863 129.549 174.291 136.691C175.434 142.405 176.944 153.016 174.087 156.689C174.699 154.036 173.271 148.599 169.802 147.302C171.23 147.836 174.136 151.179 172.659 157.913C171.181 164.647 164.904 167.3 160.007 170.361C150.109 176.547 146.131 179.339 141.03 183.421C137.969 179.543 123.889 174.034 120.828 162.198C120.162 159.623 118.787 162.811 120.012 166.484C119.088 165.995 116.334 164.395 112.87 159.546Z" fill="#151515"/>
<path d="M142.05 100.573C136.826 100.573 132.935 102.07 131.643 102.818C132.731 101.525 136.336 98.9407 142.05 98.9407C147.763 98.9407 151.232 101.525 152.252 102.818C151.028 102.07 147.273 100.573 142.05 100.573Z" fill="white"/>
<path d="M124.705 116.898C125.578 114.714 128.446 111.456 129.806 110.368C130.827 111.184 135.52 113.633 141.846 113.633C148.172 113.633 152.049 111.388 154.293 110.368C156.13 112 158.171 114.653 159.395 117.51C160.882 120.979 160.347 124.924 160.007 126.488C159.395 123.836 157.966 120.979 155.518 118.122C155.11 119.346 153.273 120.341 152.253 120.979C150.62 121.999 147.968 123.02 146.947 123.02C145.491 123.02 144.499 122.611 143.478 121.591C143.886 122.203 143.886 123.02 143.478 123.632C143.07 124.244 140.826 124.448 140.213 123.632C139.797 123.076 139.947 122.238 140.086 121.823C139.749 122.242 138.738 123.02 136.949 123.02C136.132 123.02 133.48 122.081 131.643 120.979C129.952 119.964 128.786 118.802 127.766 117.918C127.766 117.918 124.705 121.999 123.481 126.488C123.549 124.38 123.073 120.979 124.705 116.898Z" fill="white"/>
<path d="M128.582 125.06L129.806 121.999C130.146 122.067 131.112 122.367 132.255 123.02C133.398 123.673 134.772 124.652 135.316 125.06H128.582Z" fill="white"/>
<path d="M155.109 125.06L153.885 121.999C153.545 122.067 152.579 122.367 151.436 123.02C150.294 123.673 148.92 124.652 148.375 125.06H155.109Z" fill="white"/>
<path d="M127.561 128.733C126.908 129.549 126.609 130.57 126.541 130.978C126.949 130.366 127.153 130.162 128.582 129.141C129.724 128.325 131.098 128.121 131.642 128.121C131.166 128.597 130.173 129.754 130.01 130.57C129.847 131.386 130.35 132.27 130.622 132.61C130.35 132.746 129.643 133.263 128.99 134.243C128.173 135.467 127.153 137.1 127.153 139.344C127.153 141.14 127.969 143.766 128.377 144.854C126.677 142.813 123.113 138.406 122.46 137.1C121.644 135.467 121.848 133.018 123.888 130.162C125.521 127.876 128.514 127.033 129.806 126.897C129.33 127.169 128.214 127.917 127.561 128.733Z" fill="white"/>
<path d="M156.129 128.733C156.782 129.549 157.082 130.57 157.15 130.978C156.742 130.366 156.538 130.162 155.109 129.141C153.966 128.325 152.592 128.121 152.048 128.121C152.524 128.597 153.518 129.754 153.681 130.57C153.844 131.386 153.341 132.27 153.069 132.61C153.341 132.746 154.048 133.263 154.701 134.243C155.517 135.467 156.538 137.1 156.538 139.344C156.538 141.14 155.721 143.766 155.313 144.854C157.014 142.813 160.578 138.406 161.231 137.1C162.047 135.467 161.843 133.018 159.802 130.162C158.17 127.876 155.177 127.033 153.885 126.897C154.361 127.169 155.476 127.917 156.129 128.733Z" fill="white"/>
<path fill-rule="evenodd" clip-rule="evenodd" d="M139.397 126.488L141.845 129.957C142.11 129.575 142.436 129.073 142.76 128.574L142.76 128.574C143.185 127.918 143.608 127.267 143.886 126.897C144.702 125.808 146.947 125.672 148.783 127.101C150.62 128.529 152.252 130.366 152.252 131.386C152.252 132.202 150.62 134.039 149.804 134.855C150.212 134.447 151.15 133.63 151.64 133.63C152.252 133.63 153.273 134.447 154.089 135.467C154.905 136.487 155.517 137.712 155.109 141.385C154.783 144.323 153.341 147.098 152.66 148.119C153.137 146.486 154.048 142.854 153.885 141.385C153.681 139.548 150.62 138.528 148.987 138.12C147.355 137.712 144.702 137.304 141.845 137.304C139.31 137.304 137.9 137.464 136.331 137.643L136.331 137.643L136.331 137.643C136.132 137.666 135.93 137.689 135.724 137.712C133.887 137.916 130.214 139.14 129.602 141.385C129.112 143.18 130.214 146.486 130.826 147.915C130.35 147.03 129.316 145.017 128.99 144.037C128.582 142.813 127.969 139.548 128.378 137.916C128.786 136.283 130.826 133.63 131.642 133.63C132.295 133.63 133.275 134.311 133.683 134.651C132.935 133.767 131.479 131.753 131.642 130.774C131.846 129.549 134.703 127.101 135.928 126.488C136.907 125.999 138.376 125.876 139.397 126.488ZM134.907 131.59C134.907 132.406 136.132 133.563 136.744 134.039C136.744 133.872 136.695 133.612 136.645 133.348C136.593 133.075 136.54 132.796 136.54 132.61C136.54 131.998 137.356 131.182 138.172 131.386C138.825 131.549 140.213 132.814 140.825 133.427C140.417 132.406 139.478 130.162 138.989 129.345C138.499 128.529 137.152 128.937 136.336 129.549C135.412 130.242 134.907 130.774 134.907 131.59ZM147.151 134.039C147.763 133.563 148.988 132.406 148.988 131.59C148.988 130.774 148.483 130.242 147.559 129.549C146.743 128.937 145.396 128.529 144.907 129.345C144.417 130.162 143.478 132.406 143.07 133.427C143.682 132.814 145.07 131.549 145.723 131.386C146.539 131.182 147.355 131.998 147.355 132.61C147.355 132.796 147.302 133.075 147.25 133.348C147.2 133.612 147.151 133.872 147.151 134.039Z" fill="white"/>
<path d="M132.459 148.323C132.119 147.914 131.398 146.731 131.235 145.262C131.031 143.425 131.031 141.793 131.235 141.181C131.439 140.568 131.847 139.956 132.867 139.956C133.746 139.956 134.474 140.411 134.658 140.928C134.665 140.343 134.86 139.203 135.928 138.936C137.56 138.528 137.968 139.548 137.968 139.956C137.968 140.364 137.968 138.324 139.805 138.324C141.274 138.324 141.778 139.14 141.846 139.548C141.914 139.14 142.335 138.324 143.478 138.324C144.621 138.324 145.451 139.548 145.723 140.16C145.587 139.616 145.6 138.569 146.743 138.732C148.171 138.936 148.988 140.16 148.988 141.181C148.988 140.568 149.192 139.956 150.62 139.956C152.865 139.956 152.661 142.609 152.661 143.425C152.661 144.241 151.64 148.323 151.232 148.323C150.824 148.323 149.192 144.445 148.988 144.037C148.784 143.629 148.375 144.241 146.947 143.833C145.804 143.507 145.383 143.153 145.315 143.017C145.315 143.153 145.029 143.425 143.886 143.425C142.743 143.425 142.05 143.153 141.846 143.017C141.642 143.153 140.948 143.425 139.805 143.425C138.662 143.425 138.105 143.153 137.968 143.017C138.037 143.221 137.928 143.67 136.948 143.833C135.969 143.997 135.044 144.037 134.704 144.037C134.363 145.126 133.438 147.506 132.459 148.323Z" fill="white"/>
<path d="M130.418 158.322C130.418 156.036 131.37 152.064 131.847 150.364C131.439 155.465 131.847 159.954 133.275 161.791C134.703 163.627 139.601 163.831 142.05 163.831C144.498 163.831 148.375 163.831 150.416 161.791C152.048 160.158 152.048 153.492 151.844 150.364C152.184 151.656 152.865 155.057 152.865 158.322C152.865 162.403 151.436 164.239 149.6 165.464C147.763 166.688 143.478 167.096 142.05 167.096C140.621 167.096 136.744 167.504 133.887 165.464C131.03 163.423 130.418 161.179 130.418 158.322Z" fill="white"/>
<path d="M132.867 158.322C132.867 157.016 133.275 156.009 133.479 155.669C133.479 156.975 134.976 158.798 135.724 159.546C135.928 159.478 136.442 159.445 136.948 159.546C137.969 159.75 138.785 159.954 138.989 160.362C139.805 159.954 141.234 159.954 142.05 160.362C142.54 160.036 144.294 160.226 145.111 160.362C145.315 160.158 145.927 159.709 146.743 159.546C147.559 159.383 148.035 159.614 148.172 159.75L150.212 155.669C150.348 156.281 150.661 157.71 150.824 158.526C151.028 159.546 150.416 160.77 149.6 161.383C148.947 161.872 148.24 161.587 147.967 161.383C147.695 161.791 146.947 162.607 146.131 162.607C145.315 162.607 145.111 162.199 145.111 161.995C144.907 162.335 144.294 163.015 143.478 163.015C142.662 163.015 142.186 162.743 142.05 162.607C141.914 162.743 141.438 163.015 140.621 163.015C139.805 163.015 139.193 162.335 138.989 161.995C138.785 162.267 138.214 162.811 137.561 162.811C136.908 162.811 136.2 162.131 135.928 161.791C135.656 161.927 134.908 162.036 134.092 161.383C133.071 160.566 132.867 159.954 132.867 158.322Z" fill="white"/>
<path d="M135.928 169.749C134.132 168.932 132.731 167.096 132.255 166.28C133.479 167.096 137.152 168.728 142.049 168.728C146.947 168.728 150.348 167.096 151.436 166.28C150.756 167.164 149.151 169.096 148.171 169.749C146.947 170.565 143.682 170.973 142.049 170.973C140.417 170.973 138.172 170.769 135.928 169.749Z" fill="white"/>
<path d="M138.785 146.282C140.7 146.282 141.76 148.082 142.05 148.982C142.485 148.151 142.92 146.282 145.097 146.282C147.274 146.282 148.362 148.151 148.144 150.643C147.873 153.747 143.791 158.118 142.05 158.118C140.309 158.118 135.52 153.55 135.52 150.643C135.52 148.151 136.391 146.282 138.785 146.282Z" fill="white"/>
<circle cx="73.7736" cy="104.711" r="41.8713" transform="rotate(-15 73.7736 104.711)" fill="white"/>
<path d="M45.2983 89.303L73.6111 105.644V116.537L54.7359 105.644V127.431L45.2983 121.984V89.303Z" fill="#2891F9"/>
<path d="M54.7358 127.431V105.644L64.1734 111.09V121.984L54.7358 127.431Z" fill="#2BBDF7"/>
<path d="M45.2983 89.3033L54.7359 83.8564L83.0487 100.197L73.6111 105.644L45.2983 89.3033Z" fill="#2B6DEF"/>
<path d="M73.6113 105.644L83.0489 100.197V111.091L73.6113 116.538V105.644Z" fill="#2BBDF7"/>
<path d="M83.0486 89.303V121.984L92.4862 127.431V94.7499L83.0486 89.303Z" fill="#2891F9"/>
<path d="M101.924 89.303L92.4863 94.7499V127.431L101.924 121.984V89.303Z" fill="#2BBDF7"/>
<path d="M92.4862 83.8564L101.924 89.3033L92.4862 94.7501L83.0486 89.3033L92.4862 83.8564Z" fill="#2B6DEF"/>
<defs>
<linearGradient id="paint0_linear_24_128" x1="181.115" y1="183.372" x2="97.2212" y2="96.646" gradientUnits="userSpaceOnUse">
<stop stop-color="#1B76FF"/>
<stop offset="1" stop-color="#C640C9"/>
</linearGradient>
</defs>
</svg>
