<svg width="240" height="240" viewBox="0 0 240 240" fill="none" xmlns="http://www.w3.org/2000/svg">
<path d="M186.931 138.352C177.933 142.506 170.839 145.05 159.849 147.921C145.75 151.554 130.557 150.292 130.557 150.292C130.929 150.27 137.628 148.4 139.927 144.659C141.635 141.94 142.182 136.96 130.557 137.025H94.1057L84.9984 124.824H65.9737V110.817C65.9737 110.665 65.8204 110.534 65.689 110.534H42.4828C42.3296 110.534 42.1982 110.687 42.1982 110.817V173.238C42.1982 173.39 42.3515 173.52 42.4828 173.52H65.689C65.8423 173.52 65.9737 173.368 65.9737 173.238V161.732C65.9737 161.732 105.818 179.48 109.54 180.371C113.262 181.263 127.383 181.154 129.681 180.371C131.98 179.588 164.6 168.039 184.041 155.425C203.481 142.81 197.592 133.436 186.931 138.352Z" fill="white"/>
<circle cx="149.474" cy="81.0862" r="22.0862" fill="url(#paint0_linear_24_233)"/>
<path d="M138.751 89.3856C136.873 86.7566 137.85 84.3529 137.85 84.3529C137.399 85.1792 137.324 85.7801 137.399 87.5077C136.948 85.6299 136.868 83.4515 137.399 80.9728C137.737 79.3954 138.376 76.7664 139.202 75.2641C139.82 74.1394 140.479 73.3361 141.005 72.8604C141.005 72.8604 140.404 72.7102 139.352 73.912L139.355 73.901C139.467 73.4112 139.731 72.2539 140.178 71.5084C140.629 70.4568 141.104 69.7817 141.53 69.33C142.807 67.978 145.436 66.1752 143.333 66.1752C143.942 65.7067 144.992 64.8147 147.84 64.6999C148.036 64.6921 148.065 64.2974 147.389 64.1472C149.117 63.8467 149.877 64.6824 150.169 64.6999C152.875 64.8629 154.771 65.7231 155.427 66.1752C153.323 66.5508 155.952 67.7526 156.929 69.33C157.581 70.3834 158.131 71.283 158.431 72.1093C158.431 72.1093 157.304 71.283 156.628 71.283C157.68 72.2595 157.229 72.9355 158.206 74.4378C159.639 76.6421 160.835 78.3438 161.361 80.9728C161.781 83.076 162.337 86.9819 161.285 88.334C161.511 87.3575 160.985 85.3559 159.708 84.8787C160.234 85.0752 161.304 86.3059 160.76 88.7847C160.216 91.2634 157.905 92.2399 156.103 93.3666C152.459 95.6439 150.995 96.6717 149.117 98.174C147.99 96.7468 142.807 94.7187 141.681 90.3621C141.435 89.4142 140.929 90.5874 141.38 91.9395C141.04 91.7595 140.026 91.1707 138.751 89.3856Z" fill="#151515"/>
<path d="M149.492 67.6773C147.57 67.6773 146.137 68.2282 145.662 68.5036C146.062 68.0279 147.389 67.0764 149.492 67.0764C151.596 67.0764 152.873 68.0279 153.248 68.5036C152.797 68.2282 151.415 67.6773 149.492 67.6773Z" fill="white"/>
<path d="M143.108 73.6864C143.429 72.8826 144.485 71.6833 144.986 71.2827C145.361 71.5832 147.089 72.4845 149.417 72.4845C151.746 72.4845 153.173 71.6583 153.999 71.2827C154.675 71.8836 155.427 72.8601 155.877 73.9117C156.425 75.1887 156.228 76.6409 156.103 77.2167C155.877 76.2403 155.352 75.1887 154.45 74.1371C154.3 74.5877 153.624 74.9539 153.248 75.1887C152.647 75.5642 151.671 75.9398 151.295 75.9398C150.759 75.9398 150.394 75.7896 150.018 75.414C150.169 75.6393 150.169 75.9398 150.018 76.1651C149.868 76.3905 149.042 76.4656 148.817 76.1651C148.663 75.9607 148.719 75.652 148.77 75.4992C148.646 75.6534 148.273 75.9398 147.615 75.9398C147.314 75.9398 146.338 75.5943 145.662 75.1887C145.039 74.8151 144.61 74.3874 144.235 74.0619C144.235 74.0619 143.108 75.5642 142.657 77.2167C142.682 76.4406 142.507 75.1887 143.108 73.6864Z" fill="white"/>
<path d="M144.535 76.6909L144.986 75.5642C145.111 75.5892 145.466 75.6994 145.887 75.9398C146.308 76.1801 146.813 76.5407 147.014 76.6909H144.535Z" fill="white"/>
<path d="M154.3 76.6909L153.849 75.5642C153.724 75.5892 153.368 75.6994 152.948 75.9398C152.527 76.1801 152.021 76.5407 151.821 76.6909H154.3Z" fill="white"/>
<path d="M144.159 78.0432C143.919 78.3437 143.809 78.7192 143.784 78.8695C143.934 78.6441 144.009 78.569 144.535 78.1934C144.955 77.893 145.461 77.8179 145.661 77.8179C145.486 77.9931 145.121 78.4188 145.06 78.7192C145 79.0197 145.186 79.3452 145.286 79.4704C145.186 79.5205 144.925 79.7108 144.685 80.0713C144.384 80.522 144.009 81.1229 144.009 81.9492C144.009 82.6102 144.309 83.5766 144.46 83.9773C143.834 83.2261 142.522 81.6036 142.281 81.1229C141.981 80.522 142.056 79.6206 142.807 78.569C143.408 77.7277 144.51 77.4173 144.985 77.3672C144.81 77.4673 144.4 77.7428 144.159 78.0432Z" fill="white"/>
<path d="M154.675 78.0432C154.916 78.3437 155.026 78.7192 155.051 78.8695C154.901 78.6441 154.826 78.569 154.3 78.1934C153.879 77.893 153.373 77.8179 153.173 77.8179C153.348 77.9931 153.714 78.4188 153.774 78.7192C153.834 79.0197 153.649 79.3452 153.549 79.4704C153.649 79.5205 153.909 79.7108 154.15 80.0713C154.45 80.522 154.826 81.1229 154.826 81.9492C154.826 82.6102 154.525 83.5766 154.375 83.9773C155.001 83.2261 156.313 81.6036 156.553 81.1229C156.854 80.522 156.779 79.6206 156.027 78.569C155.426 77.7277 154.325 77.4173 153.849 77.3672C154.024 77.4673 154.435 77.7428 154.675 78.0432Z" fill="white"/>
<path fill-rule="evenodd" clip-rule="evenodd" d="M148.516 77.2168L149.417 78.4938C149.515 78.353 149.635 78.1683 149.754 77.9844C149.911 77.7431 150.066 77.5035 150.168 77.367C150.469 76.9664 151.295 76.9164 151.971 77.4422C152.647 77.968 153.248 78.644 153.248 79.0196C153.248 79.32 152.647 79.996 152.347 80.2965C152.497 80.1463 152.842 79.8458 153.023 79.8458C153.248 79.8458 153.624 80.1463 153.924 80.5218C154.225 80.8974 154.45 81.3481 154.3 82.7002C154.18 83.7818 153.649 84.8034 153.398 85.1789C153.574 84.578 153.909 83.241 153.849 82.7002C153.774 82.0241 152.647 81.6486 152.046 81.4983C151.445 81.3481 150.469 81.1979 149.417 81.1979C148.484 81.1979 147.965 81.257 147.387 81.3228L147.387 81.3229C147.314 81.3312 147.24 81.3397 147.164 81.3481C146.488 81.4232 145.136 81.8739 144.91 82.7002C144.73 83.3612 145.136 84.578 145.361 85.1038C145.186 84.7783 144.805 84.0372 144.685 83.6766C144.535 83.226 144.309 82.0241 144.46 81.4232C144.61 80.8223 145.361 79.8458 145.662 79.8458C145.902 79.8458 146.262 80.0962 146.413 80.2214C146.137 79.8959 145.601 79.1548 145.662 78.7942C145.737 78.3435 146.788 77.4422 147.239 77.2168C147.599 77.0365 148.14 76.9915 148.516 77.2168ZM146.863 79.0946C146.863 79.3951 147.314 79.8207 147.539 79.996C147.539 79.9345 147.521 79.839 147.503 79.7418L147.503 79.7418C147.484 79.6411 147.464 79.5386 147.464 79.4702C147.464 79.2449 147.765 78.9444 148.065 79.0195C148.306 79.0796 148.816 79.5453 149.042 79.7707C148.891 79.3951 148.546 78.5688 148.366 78.2684C148.185 77.9679 147.69 78.1181 147.389 78.3435C147.049 78.5984 146.863 78.7942 146.863 79.0946ZM151.37 79.996C151.596 79.8207 152.046 79.3951 152.046 79.0946C152.046 78.7942 151.86 78.5984 151.52 78.3435C151.22 78.1181 150.724 77.9679 150.544 78.2684C150.364 78.5688 150.018 79.3951 149.868 79.7707C150.093 79.5453 150.604 79.0796 150.844 79.0195C151.145 78.9444 151.445 79.2449 151.445 79.4702C151.445 79.5386 151.426 79.6411 151.407 79.7418C151.388 79.839 151.37 79.9345 151.37 79.996Z" fill="white"/>
<path d="M145.962 85.2538C145.837 85.1036 145.572 84.668 145.511 84.1271C145.436 83.4511 145.436 82.8502 145.511 82.6248C145.587 82.3995 145.737 82.1742 146.112 82.1742C146.436 82.1742 146.704 82.3415 146.772 82.532C146.774 82.3165 146.846 81.8969 147.239 81.7986C147.84 81.6484 147.99 82.0239 147.99 82.1742C147.99 82.3244 147.99 81.5732 148.666 81.5732C149.207 81.5732 149.392 81.8737 149.417 82.0239C149.442 81.8737 149.598 81.5732 150.018 81.5732C150.439 81.5732 150.744 82.0239 150.845 82.2493C150.794 82.049 150.799 81.6634 151.22 81.7235C151.746 81.7986 152.046 82.2493 152.046 82.6248C152.046 82.3995 152.121 82.1742 152.647 82.1742C153.474 82.1742 153.398 83.1506 153.398 83.4511C153.398 83.7516 153.023 85.2538 152.873 85.2538C152.722 85.2538 152.121 83.8267 152.046 83.6764C151.971 83.5262 151.821 83.7516 151.295 83.6013C150.875 83.4811 150.719 83.3509 150.694 83.3009C150.694 83.3509 150.589 83.4511 150.169 83.4511C149.748 83.4511 149.492 83.3509 149.417 83.3009C149.342 83.3509 149.087 83.4511 148.666 83.4511C148.246 83.4511 148.04 83.3509 147.99 83.3009C148.015 83.376 147.975 83.5412 147.615 83.6013C147.254 83.6614 146.914 83.6764 146.788 83.6764C146.663 84.0771 146.323 84.9534 145.962 85.2538Z" fill="white"/>
<path d="M145.211 88.9348C145.211 88.0936 145.561 86.6313 145.737 86.0054C145.587 87.8832 145.737 89.5357 146.263 90.2118C146.788 90.8878 148.591 90.9629 149.492 90.9629C150.394 90.9629 151.821 90.9629 152.572 90.2118C153.173 89.6109 153.173 87.1571 153.098 86.0054C153.223 86.4811 153.474 87.733 153.474 88.9348C153.474 90.4371 152.948 91.1131 152.272 91.5638C151.596 92.0145 150.018 92.1647 149.492 92.1647C148.967 92.1647 147.539 92.315 146.488 91.5638C145.436 90.8127 145.211 89.9864 145.211 88.9348Z" fill="white"/>
<path d="M146.112 88.9345C146.112 88.4538 146.263 88.0832 146.338 87.958C146.338 88.4387 146.888 89.1098 147.164 89.3852C147.239 89.3601 147.428 89.3479 147.615 89.3852C147.99 89.4603 148.291 89.5354 148.366 89.6856C148.666 89.5354 149.192 89.5354 149.492 89.6856C149.673 89.5655 150.319 89.6356 150.619 89.6856C150.694 89.6105 150.92 89.4453 151.22 89.3852C151.521 89.3251 151.696 89.4102 151.746 89.4603L152.497 87.958C152.547 88.1834 152.662 88.7092 152.722 89.0096C152.797 89.3852 152.572 89.8359 152.272 90.0612C152.031 90.2415 151.771 90.1363 151.671 90.0612C151.571 90.2114 151.295 90.5119 150.995 90.5119C150.694 90.5119 150.619 90.3617 150.619 90.2866C150.544 90.4117 150.319 90.6621 150.018 90.6621C149.718 90.6621 149.543 90.562 149.492 90.5119C149.442 90.562 149.267 90.6621 148.967 90.6621C148.666 90.6621 148.441 90.4117 148.366 90.2866C148.291 90.3867 148.08 90.587 147.84 90.587C147.6 90.587 147.339 90.3366 147.239 90.2114C147.139 90.2615 146.863 90.3016 146.563 90.0612C146.187 89.7608 146.112 89.5354 146.112 88.9345Z" fill="white"/>
<path d="M147.239 93.141C146.578 92.8405 146.062 92.1645 145.887 91.864C146.337 92.1645 147.689 92.7654 149.492 92.7654C151.295 92.7654 152.547 92.1645 152.947 91.864C152.697 92.1895 152.106 92.9006 151.746 93.141C151.295 93.4414 150.093 93.5916 149.492 93.5916C148.891 93.5916 148.065 93.5165 147.239 93.141Z" fill="white"/>
<path d="M148.291 84.5029C148.996 84.5029 149.386 85.1653 149.493 85.4965C149.653 85.1908 149.813 84.5029 150.614 84.5029C151.416 84.5029 151.816 85.1908 151.736 86.108C151.636 87.2505 150.134 88.8596 149.493 88.8596C148.852 88.8596 147.089 87.1781 147.089 86.108C147.089 85.1908 147.41 84.5029 148.291 84.5029Z" fill="white"/>
<path fill-rule="evenodd" clip-rule="evenodd" d="M117.819 125.638C132.631 125.638 144.638 113.631 144.638 98.819C144.638 84.0073 132.631 72 117.819 72C103.007 72 91 84.0073 91 98.819C91 113.631 103.007 125.638 117.819 125.638ZM121.919 91.1791L129.019 90.0791C128.619 88.0791 127.619 86.4791 126.119 85.2791C124.619 84.0791 122.419 83.4791 119.619 83.2792V81.3792H116.819V83.2792C113.719 83.3792 111.419 84.2791 109.819 85.7791C108.219 87.3791 107.419 89.1791 107.419 91.4791C107.419 93.1791 107.819 94.4792 108.619 95.6792C109.419 96.7792 110.319 97.6791 111.419 98.1791C112.419 98.6791 114.219 99.2792 116.819 99.9792L119.719 100.679C121.019 101.079 121.819 101.579 122.219 102.079C122.619 102.579 122.819 103.079 122.819 103.679C122.819 104.379 122.519 104.979 122.019 105.579C120.319 107.379 116.319 107.079 114.919 105.079C114.519 104.579 114.219 103.579 114.019 102.379L106.319 103.279C106.519 104.479 106.819 105.579 107.319 106.479C107.819 107.379 108.519 108.179 109.319 108.979C110.119 109.779 111.119 110.379 112.319 110.779C113.419 111.179 114.919 111.479 116.819 111.679V115.279H119.419V111.679C121.019 111.679 122.319 111.479 123.419 111.079C124.519 110.679 125.519 110.179 126.519 109.379C127.519 108.579 128.319 107.579 128.919 106.479C129.519 105.279 129.819 104.079 129.819 102.679C129.819 100.379 128.919 98.3792 127.219 96.8792C125.919 95.7792 123.419 94.6791 119.519 93.6791L116.719 92.9792C115.919 92.7792 115.319 92.3792 115.019 91.9792C114.719 91.4792 114.519 91.0791 114.519 90.4791C114.519 89.9791 114.719 89.4791 115.019 89.0791C116.319 87.5791 119.719 87.7792 120.919 89.2792C121.219 89.6791 121.619 90.2791 121.919 91.1791Z" fill="white"/>
<defs>
<linearGradient id="paint0_linear_24_233" x1="163.873" y1="98.1558" x2="132.991" y2="66.2318" gradientUnits="userSpaceOnUse">
<stop stop-color="#1B76FF"/>
<stop offset="1" stop-color="#C640C9"/>
</linearGradient>
</defs>
</svg>
