<svg width="240" height="240" viewBox="0 0 240 240" fill="none" xmlns="http://www.w3.org/2000/svg">
<g opacity="0.75">
<path d="M96.627 64.3204C97.893 64.3118 99.1121 64.7987 100.024 65.6771C100.935 66.5555 101.467 67.7557 101.506 69.0211C101.544 70.2865 101.086 71.5167 100.229 72.4487C99.3723 73.3807 98.1849 73.9406 96.9208 74.0087L96.627 74.0176H49.3311C46.3492 74.0176 43.442 76.3996 43.2444 78.6231L43.2355 78.8617C43.2355 80.1476 42.7246 81.3808 41.8153 82.2901C40.9061 83.1994 39.6728 83.7102 38.3869 83.7102C37.101 83.7102 35.8677 83.1994 34.9584 82.2901C34.0492 81.3808 33.5383 80.1476 33.5383 78.8617C33.5383 70.9804 40.93 64.5572 48.8878 64.3275L49.3311 64.3204H96.6253H96.627ZM38.782 74.6036C40.0167 74.604 41.2047 75.0754 42.1039 75.9216C43.003 76.7678 43.5455 77.9251 43.6207 79.1575L43.6296 79.453L43.6297 185.776C43.6297 187.673 47.265 190.427 50.5994 190.609L50.943 190.62H157.96C159.595 190.62 160.35 189.568 160.405 186.19L160.408 185.776V147.005C160.399 145.739 160.886 144.519 161.764 143.607C162.642 142.695 163.842 142.163 165.108 142.124C166.374 142.086 167.604 142.544 168.536 143.401C169.469 144.257 170.029 145.445 170.097 146.709L170.105 147.005V185.776C170.105 194.027 166.237 200.075 158.432 200.308L157.96 200.315H50.9413C42.8339 200.315 34.2441 194.063 33.9397 186.205L33.9325 185.776L33.9325 79.4513C33.9327 78.8146 34.0584 78.1843 34.3022 77.5963C34.546 77.0082 34.9033 76.4739 35.3536 76.024C35.8039 75.574 36.3385 75.2171 36.9267 74.9737C37.5149 74.7303 38.1454 74.6051 38.782 74.6054V74.6036Z" fill="white" stroke="white" stroke-width="3"/>
<path d="M134.603 80.1092C135.081 80.9359 135.717 81.6601 136.475 82.2405C137.234 82.8208 138.1 83.246 139.024 83.4918C139.949 83.7375 140.913 83.799 141.862 83.6727C142.812 83.5463 143.728 83.2347 144.558 82.7555C145.387 82.2764 146.115 81.6391 146.699 80.8801C147.283 80.1211 147.712 79.2551 147.962 78.3318C148.211 77.4084 148.276 76.4457 148.153 75.4986C148.029 74.5515 147.72 73.6386 147.243 72.8119C146.766 71.9852 146.129 71.261 145.371 70.6806C144.612 70.1002 143.746 69.675 142.822 69.4293C141.898 69.1836 140.933 69.1221 139.984 69.2484C139.034 69.3748 138.119 69.6864 137.289 70.1655C136.459 70.6447 135.731 71.282 135.147 72.041C134.563 72.8 134.134 73.6659 133.885 74.5893C133.635 75.5127 133.57 76.4754 133.694 77.4225C133.817 78.3696 134.126 79.2825 134.603 80.1092V80.1092Z" fill="white" stroke="white" stroke-width="3"/>
<path d="M163.796 109.169C164.759 110.838 166.35 112.055 168.216 112.551C170.083 113.047 172.074 112.783 173.75 111.815C175.426 110.847 176.65 109.256 177.154 107.391C177.657 105.526 177.399 103.541 176.435 101.871C175.471 100.202 173.881 98.9849 172.014 98.4887C170.147 97.9924 168.157 98.2572 166.481 99.2249C164.805 100.193 163.58 101.784 163.077 103.649C162.573 105.513 162.832 107.499 163.796 109.169Z" fill="white" stroke="white" stroke-width="3"/>
<path d="M169.132 70.9635C170.021 70.0717 171.223 69.5612 172.482 69.5399C173.741 69.5186 174.959 69.9884 175.878 70.8496C176.798 71.7108 177.345 72.8959 177.406 74.1539C177.466 75.412 177.035 76.6442 176.203 77.5897L175.975 77.8318L141.924 111.757C141.035 112.655 139.832 113.171 138.569 113.194C137.306 113.218 136.084 112.748 135.162 111.885C134.24 111.021 133.692 109.831 133.634 108.569C133.577 107.308 134.014 106.073 134.852 105.129L135.08 104.887L169.132 70.9635ZM140.934 166.387C142.2 166.378 143.419 166.864 144.332 167.742C145.244 168.621 145.776 169.821 145.814 171.087C145.853 172.352 145.395 173.583 144.538 174.515C143.681 175.447 142.494 176.007 141.229 176.075L140.934 176.084H63.104C61.8378 176.093 60.6183 175.607 59.7063 174.728C58.7942 173.85 58.2619 172.65 58.2233 171.384C58.1847 170.119 58.6428 168.888 59.4997 167.956C60.3565 167.024 61.5441 166.464 62.8085 166.396L63.104 166.387H140.934ZM99.5871 143.202C100.853 143.193 102.073 143.679 102.985 144.557C103.897 145.436 104.429 146.636 104.468 147.902C104.506 149.167 104.048 150.398 103.191 151.33C102.335 152.262 101.147 152.822 99.8826 152.89L99.5871 152.899H63.104C61.8378 152.908 60.6183 152.422 59.7063 151.543C58.7942 150.665 58.2619 149.465 58.2233 148.199C58.1847 146.934 58.6428 145.703 59.4997 144.771C60.3565 143.839 61.5441 143.279 62.8085 143.211L63.104 143.202H99.5871Z" fill="white" stroke="white" stroke-width="3"/>
<path d="M155.527 40.0018C127.552 40.0018 104.867 62.6005 104.867 90.4885C104.867 118.376 127.552 140.977 155.527 140.977C183.502 140.977 206.188 118.376 206.188 90.4885C206.188 62.6005 183.5 40 155.527 40V40.0018ZM155.527 48.8978C178.597 48.8978 197.292 67.5212 197.292 90.4885C197.292 113.454 178.597 132.079 155.527 132.079C132.458 132.079 113.763 113.454 113.763 90.4885C113.763 67.523 132.458 48.8978 155.528 48.8978H155.527Z" fill="white" stroke="white" stroke-width="3"/>
</g>
</svg>
