<svg width="240" height="240" viewBox="0 0 240 240" fill="none" xmlns="http://www.w3.org/2000/svg">
<path d="M143.094 165.4L137.594 191.5H71.2999L65.3999 165.4H58.9999V155.8H101.2C102.2 153.9 103.1 151.9 103.7 149.7C93 151.5 84.1 140.2 79.3 131.7C86.8 131.7 99.6 135.1 105 141.9C105.1 140.6 105.1 139.3 105 138.1C104.6 131.4 102.3 124.6 97.7999 118.7C95.4999 119.3 93.2 119.6 90.7 119.6C81.2 119.6 72.8 114.7 67.9 107.4C67.9 107.4 67.2 106.7 65.7 103.2C64.2 99.7002 64.1665 98.7081 63.6 94.8C63.3622 93.1602 63.6 89 63.6 89C65.1 75.5 76.6 65 90.6 65C105.7 65 117.9 77.2 117.9 92.3C117.9 101.9 112.9 110.4 105.4 115.3C109 120.5 111.3 126.2 112.4 131.9C117.3 124.4 130.9 120.7 138.7 120.7C133.7 129.5 124.4 141.3 113.1 138.4C113.4 144.4 112.3 150.3 110.2 155.7H150.494V165.3H143.094V165.4ZM90.6 73C79.9 73 71.2999 81.7 71.2999 92.3C71.2999 103 80 111.6 90.6 111.6C101.3 111.6 109.9 102.9 109.9 92.3C110 81.7 101.3 73 90.6 73Z" fill="white"/>
<path d="M101.194 83.7L94.0944 84.8C93.7944 83.9 93.3944 83.3 93.0944 82.9C91.8944 81.4 88.4944 81.2 87.1944 82.7C86.8944 83.1 86.6944 83.6 86.6944 84.1C86.6944 84.7 86.8944 85.1 87.1944 85.6C87.4944 86 88.0944 86.4 88.8944 86.6L91.6944 87.3C95.5944 88.3 98.0944 89.4 99.3944 90.5C101.094 92 101.994 94 101.994 96.3C101.994 97.7 101.694 98.9 101.094 100.1C100.494 101.2 99.6944 102.2 98.6944 103C97.6944 103.8 96.6944 104.3 95.5944 104.7C94.4944 105.1 93.1944 105.3 91.5944 105.3V108.9H88.9944V105.3C87.0944 105.1 85.5944 104.8 84.4944 104.4C83.2944 104 82.2944 103.4 81.4944 102.6C80.6944 101.8 79.9944 101 79.4944 100.1C78.9944 99.2 78.6944 98.1 78.4944 96.9L86.1944 96C86.3944 97.2 86.6944 98.2 87.0944 98.7C88.4944 100.7 92.4944 101 94.1944 99.2C94.6944 98.6 94.9944 98 94.9944 97.3C94.9944 96.7 94.7944 96.2 94.3944 95.7C93.9944 95.2 93.1944 94.7 91.8944 94.3L88.9944 93.6C86.3944 92.9 84.5944 92.3 83.5944 91.8C82.4944 91.3 81.5944 90.4 80.7944 89.3C79.9944 88.1 79.5944 86.8 79.5944 85.1C79.5944 82.8 80.3944 81 81.9944 79.4C83.5944 77.9 85.8944 77 88.9944 76.9V75H91.7944V76.9C94.5944 77.1 96.7944 77.7 98.2944 78.9C99.7944 80.1 100.794 81.7 101.194 83.7Z" fill="white"/>
<path d="M162.494 72.2L150.394 93.4L144.394 70.7L138.294 48L158.394 59.5L181.994 51.5V68.2L162.494 72.2ZM131.794 102.7C134.094 98 137.394 95.1 142.294 93.4L139.294 85C132.194 87.6 127.094 92 123.794 98.8L131.794 102.7ZM127.794 120.5L118.894 119.6C119.294 115.8 119.794 111.9 120.594 108.2L129.294 110.1C128.494 113.6 128.094 117.1 127.794 120.5ZM118.994 69.8L113.494 62.8C118.494 58.8 124.294 55.6 130.294 53.4L133.294 61.8C128.194 63.7 123.194 66.4 118.994 69.8ZM124.594 86.3L118.394 79.8C123.094 75.3 129.094 71.8 134.894 69L137.494 77.8C132.894 80.1 128.394 82.7 124.594 86.3Z" fill="url(#paint0_linear_24_293)"/>
<defs>
<linearGradient id="paint0_linear_24_293" x1="147.744" y1="48" x2="147.744" y2="120.5" gradientUnits="userSpaceOnUse">
<stop stop-color="#1B9FFF"/>
<stop offset="1" stop-color="#C640C9"/>
</linearGradient>
</defs>
</svg>
