<svg width="240" height="240" viewBox="0 0 240 240" fill="none" xmlns="http://www.w3.org/2000/svg">
<path d="M119.302 73.7385C125.505 73.7385 131.509 74.9526 137.164 77.3476C142.636 79.6594 147.542 82.969 151.75 87.1934C155.974 91.4178 159.284 96.3241 161.596 101.779C163.991 107.434 165.205 113.438 165.205 119.642C165.205 125.845 163.991 131.849 161.596 137.504C159.284 142.976 155.974 147.882 151.75 152.09C147.526 156.314 142.619 159.624 137.164 161.935C131.509 164.33 125.505 165.545 119.302 165.545C113.098 165.545 107.094 164.33 101.44 161.935C95.9678 159.624 91.0615 156.314 86.8538 152.09C82.6294 147.865 79.3197 142.959 77.0079 137.504C74.613 131.849 73.3989 125.845 73.3989 119.642C73.3989 113.438 74.613 107.434 77.0079 101.779C79.3197 96.3075 82.6294 91.4012 86.8538 87.1934C91.0782 82.969 95.9845 79.6594 101.44 77.3476C107.094 74.9526 113.098 73.7385 119.302 73.7385V73.7385ZM119.302 63.0944C88.0679 63.0944 62.7547 88.4075 62.7547 119.642C62.7547 150.876 88.0679 176.189 119.302 176.189C150.536 176.189 175.849 150.876 175.849 119.642C175.849 88.4075 150.536 63.0944 119.302 63.0944V63.0944Z" fill="white" fill-opacity="0.75"/>
<path d="M194 119.467C194 113.794 189.458 108.738 188.285 103.431C187.079 97.9582 189.012 91.3709 186.683 86.4137C184.321 81.39 178.093 78.8449 174.74 74.5365C171.371 70.1949 170.346 63.3913 166.134 59.9146C161.955 56.4712 155.266 56.937 150.393 54.525C145.586 52.1462 141.804 46.4571 136.468 45.2095C135.692 45.0265 134.899 44.9434 134.106 44.9434C129.58 44.9434 124.691 47.4053 120 47.4053C115.309 47.4053 110.42 44.9434 105.894 44.9434C105.101 44.9434 104.308 45.0265 103.532 45.1929C98.2129 46.4405 94.4138 52.1296 89.6071 54.5083C84.7344 56.937 78.0446 56.4712 73.8491 59.9146C69.6371 63.3746 68.5964 70.1949 65.2433 74.5365C61.8902 78.8449 55.6629 81.39 53.3009 86.4137C50.9884 91.3543 52.921 97.9416 51.6987 103.431C50.5424 108.738 46 113.794 46 119.467C46 125.139 50.5424 130.196 51.7152 135.503C52.921 140.976 50.9884 147.563 53.3174 152.52C55.0022 156.113 58.6857 158.442 61.8571 161.054C63.1125 162.085 64.3018 163.166 65.2433 164.397L65.2598 164.414C66.0857 165.462 66.3665 166.843 66.0196 168.14L56.6705 203.273C56.4393 204.121 57.0835 204.953 57.9424 204.953H58.0746L76.6737 203.123C76.8388 203.106 77.0205 203.09 77.1857 203.09C78.2924 203.09 79.3661 203.439 80.258 204.088L95.471 215.033C95.7022 215.2 95.9665 215.283 96.2308 215.283C96.7924 215.283 97.354 214.917 97.5192 214.302L102.887 194.107C102.97 193.824 103.251 193.658 103.532 193.724C104.308 193.907 105.101 193.974 105.894 193.974C110.42 193.974 115.309 191.512 120 191.512C124.691 191.512 129.58 193.974 134.106 193.974C134.899 193.974 135.692 193.891 136.468 193.724C136.667 193.674 136.865 193.791 136.914 193.991L142.316 214.285C142.481 214.9 143.026 215.266 143.604 215.266C143.868 215.266 144.133 215.183 144.364 215.017L159.577 204.071C160.485 203.422 161.559 203.073 162.649 203.073C162.814 203.073 162.996 203.073 163.161 203.106L181.76 204.936H181.892C182.751 204.936 183.396 204.121 183.164 203.256L173.914 168.506C173.534 167.076 173.848 165.545 174.74 164.381C175.698 163.15 176.871 162.068 178.126 161.037C181.314 158.425 184.981 156.097 186.666 152.504C188.979 147.563 187.046 140.976 188.268 135.486C189.458 130.196 194 125.139 194 119.467V119.467ZM91.0112 197.634C90.8955 198.083 90.367 198.266 89.9871 197.999L86.4192 195.421C83.7103 193.475 80.5223 192.443 77.2022 192.443C76.6902 192.443 76.1781 192.477 75.6661 192.527L71.2888 192.959C70.8263 193.009 70.4629 192.577 70.5786 192.127L73.783 180.084C73.8987 179.651 74.4107 179.452 74.7906 179.701C75.6496 180.25 76.5746 180.683 77.5491 181.032C80.8857 182.23 84.7839 182.546 88.1205 183.777C88.6326 183.96 89.1281 184.176 89.6071 184.409C90.9286 185.074 92.1839 185.973 93.4062 186.971C93.621 187.154 93.7201 187.436 93.6375 187.703L91.0112 197.634V197.634ZM164.185 192.527C163.673 192.477 163.161 192.443 162.649 192.443C159.329 192.443 156.141 193.475 153.432 195.421L149.864 197.999C149.484 198.266 148.956 198.083 148.84 197.634L146.263 187.985C146.164 187.619 146.296 187.22 146.594 186.971C147.816 185.973 149.055 185.058 150.393 184.409C150.822 184.193 151.268 184.01 151.714 183.827C155.034 182.562 158.933 182.246 162.286 181.065C163.277 180.716 164.218 180.3 165.077 179.768C165.457 179.535 165.953 179.718 166.068 180.15L169.256 192.111C169.372 192.56 169.008 192.992 168.546 192.943L164.185 192.527V192.527ZM169.058 156.729C168.15 157.926 167.208 159.107 166.217 160.239C163.971 162.817 161.526 165.212 158.883 167.375C156.62 169.238 154.225 170.951 151.698 172.482C150.046 173.497 148.328 174.428 146.577 175.276C144.43 176.324 142.2 177.239 139.904 178.038C138.616 178.487 137.327 178.886 136.006 179.236C135.064 179.485 134.106 179.718 133.148 179.934C128.92 180.849 124.526 181.348 120 181.348C115.425 181.348 110.965 180.849 106.67 179.884C105.762 179.685 104.87 179.468 103.978 179.219C102.656 178.87 101.351 178.47 100.079 178.021C97.8 177.239 95.5701 176.308 93.4062 175.276C91.7379 174.461 90.1192 173.58 88.5335 172.632C85.9237 171.068 83.446 169.305 81.1004 167.375C78.4906 165.212 76.046 162.85 73.8161 160.289C72.8085 159.141 71.8504 157.943 70.9254 156.729C63.1455 146.365 58.5371 133.457 58.5371 119.467C58.5371 85.2826 86.0393 57.5858 119.983 57.5858C153.928 57.5858 181.43 85.2826 181.43 119.467C181.446 133.457 176.838 146.365 169.058 156.729Z" fill="white" fill-opacity="0.75"/>
</svg>
