<svg width="240" height="240" viewBox="0 0 240 240" fill="none" xmlns="http://www.w3.org/2000/svg">
<path d="M188.5 43C193 43 195 46.5 195 50.5C195 72.5 195 116.727 195 116.727C195.005 131.446 190.965 145.882 183.323 158.446C175.682 171.011 164.735 181.219 151.687 187.946L120.5 204L89.3132 187.946C76.2631 181.218 65.3152 171.009 57.6736 158.442C50.032 145.875 45.9927 131.436 46 116.715C46 116.715 46.0001 73.5 46 50.5C46 45.7975 49.2975 43 54 43C98.2646 43 156 43 188.5 43ZM179.435 58.5595H61.5648V116.715C61.5572 128.573 64.8088 140.204 70.9621 150.328C77.1153 160.452 85.9319 168.677 96.4422 174.1L120.5 186.497L144.558 174.112C155.068 168.689 163.885 160.463 170.038 150.339C176.191 140.215 179.443 128.585 179.435 116.727V58.5595ZM139.114 84.124L129.073 107.55H147.687L117.887 154.826H107.858L119.148 124.903H98.2646L115.491 84.124H139.114Z" fill="white" fill-opacity="0.75"/>
</svg>
