<svg width="240" height="240" viewBox="0 0 240 240" fill="none" xmlns="http://www.w3.org/2000/svg">
<path d="M179.725 100.227V129.162L174.382 123.556C165.917 113.915 151.541 120.961 151.541 133.063V136.641H130.25C121.799 136.641 114.861 143.461 114.861 151.925V156.73L114.868 157.199C114.957 160.174 115.922 163.058 117.642 165.487H61.1193C58.1703 165.487 55.342 164.315 53.2568 162.23C51.1715 160.145 50 157.316 50 154.367V100.227H179.725ZM96.3304 138.615H70.3854C68.9673 138.615 67.6028 139.157 66.571 140.13C65.5392 141.102 64.9182 142.433 64.835 143.848L64.8257 144.175V144.571C64.8257 145.989 65.3675 147.354 66.3403 148.386C67.3132 149.417 68.6436 150.038 70.0592 150.122L70.3854 150.131H96.3304C97.7482 150.131 99.1125 149.589 100.144 148.617C101.176 147.644 101.797 146.315 101.881 144.899L101.89 144.571V144.175C101.89 143.444 101.746 142.722 101.467 142.047C101.187 141.372 100.778 140.76 100.262 140.243C99.7454 139.727 99.1325 139.318 98.458 139.038C97.7835 138.759 97.0605 138.615 96.3304 138.615ZM168.606 58C171.555 58 174.383 59.1715 176.468 61.2568C178.554 63.342 179.725 66.1703 179.725 69.1193V81.0336H50V69.1193C50 66.1703 51.1715 63.342 53.2568 61.2568C55.342 59.1715 58.1703 58 61.1193 58H168.606Z" fill="white"/>
<path d="M168.469 130.741L168.282 130.529C165.808 127.894 161.734 129.942 161.734 133.991V146.834H131.178L130.832 146.843C127.624 147.021 125.055 149.657 125.055 152.851V157.657L125.065 157.998C125.246 161.152 127.928 163.676 131.178 163.676H161.734V176.578L161.742 176.886C161.945 180.831 166.082 182.705 168.469 179.888L188.769 158.595L188.988 158.317C190.296 156.497 190.224 153.75 188.769 152.034L168.469 130.741Z" fill="url(#paint0_linear_24_329)"/>
<defs>
<linearGradient id="paint0_linear_24_329" x1="157.486" y1="129.349" x2="157.486" y2="181.238" gradientUnits="userSpaceOnUse">
<stop stop-color="#1B9FFF"/>
<stop offset="1" stop-color="#C640C9"/>
</linearGradient>
</defs>
</svg>
