<svg width="240" height="240" viewBox="0 0 240 240" fill="none" xmlns="http://www.w3.org/2000/svg">
<path d="M170.333 68.6176H187C189.189 68.6176 191.356 69.0487 193.378 69.8863C195.4 70.7239 197.237 71.9515 198.785 73.4992C200.333 75.0468 201.56 76.8841 202.398 78.9062C203.236 80.9283 203.667 83.0956 203.667 85.2843V185.284C203.667 187.473 203.236 189.64 202.398 191.662C201.56 193.684 200.333 195.522 198.785 197.069C197.237 198.617 195.4 199.845 193.378 200.682C191.356 201.52 189.189 201.951 187 201.951H53.6667C51.478 201.951 49.3107 201.52 47.2886 200.682C45.2665 199.845 43.4292 198.617 41.8816 197.069C40.3339 195.522 39.1063 193.684 38.2687 191.662C37.4311 189.64 37 187.473 37 185.284H37.225C37.0759 184.386 37.0007 183.478 37 182.568V83.2343C36.9998 79.6131 38.179 76.0904 40.3591 73.199C42.5393 70.3077 45.6018 68.2051 49.0833 67.2093L149.083 38.6426C151.564 37.9331 154.176 37.8091 156.712 38.2806C159.249 38.7521 161.642 39.8062 163.702 41.3597C165.762 42.9132 167.433 44.9238 168.584 47.2331C169.735 49.5425 170.333 52.0874 170.333 54.6676V68.6176ZM170.333 85.2843V154.001C170.334 157.622 169.154 161.145 166.974 164.036C164.794 166.927 161.732 169.03 158.25 170.026L104.833 185.284H187V85.2843H170.333ZM53.6667 83.2343V182.568L153.667 154.001V54.6676L53.6667 83.2343ZM170.333 118.618V101.951H187V118.618H170.333ZM128.667 110.284C126.457 110.284 124.337 109.406 122.774 107.843C121.211 106.281 120.333 104.161 120.333 101.951C120.333 99.7408 121.211 97.6212 122.774 96.0584C124.337 94.4956 126.457 93.6176 128.667 93.6176C130.877 93.6176 132.996 94.4956 134.559 96.0584C136.122 97.6212 137 99.7408 137 101.951C137 104.161 136.122 106.281 134.559 107.843C132.996 109.406 130.877 110.284 128.667 110.284Z" fill="white" fill-opacity="0.75"/>
</svg>
