<svg width="240" height="240" viewBox="0 0 240 240" fill="none" xmlns="http://www.w3.org/2000/svg">
<circle cx="120.5" cy="120.5" r="37.5" fill="url(#paint0_linear_24_334)"/>
<path d="M120.125 77.3979C96.5681 77.3979 77.3982 96.5678 77.3982 120.125C77.3982 143.681 96.5681 162.851 120.125 162.851C143.682 162.851 162.852 143.681 162.852 120.125C162.852 96.5678 143.682 77.3979 120.125 77.3979V77.3979ZM120.125 157.503C99.5127 157.503 82.7465 140.737 82.7465 120.125C82.7465 99.5124 99.5127 82.7463 120.125 82.7463C140.737 82.7463 157.503 99.5124 157.503 120.125C157.503 140.737 140.737 157.503 120.125 157.503ZM48.0324 117.46C46.55 117.46 45.3682 118.662 45.3682 120.125C45.3682 121.607 46.5701 122.789 48.0324 122.789H69.3857C70.868 122.789 72.0498 121.587 72.0498 120.125C72.0498 118.642 70.848 117.46 69.3857 117.46H48.0324ZM170.864 117.46C169.382 117.46 168.2 118.662 168.2 120.125C168.2 121.607 169.402 122.789 170.864 122.789H192.217C193.7 122.789 194.881 121.587 194.881 120.125C194.881 118.642 193.68 117.46 192.217 117.46H170.864V117.46ZM120.125 168.18C118.643 168.18 117.461 169.381 117.461 170.844V192.197C117.461 193.679 118.663 194.861 120.125 194.861C121.587 194.861 122.789 193.659 122.789 192.197V170.864C122.789 169.381 121.607 168.18 120.125 168.18V168.18ZM120.125 72.0696C121.607 72.0696 122.789 70.8677 122.789 69.4055V50.7163C122.789 49.234 121.587 48.0521 120.125 48.0521C118.643 48.0521 117.461 49.254 117.461 50.7163V69.4055C117.461 70.8677 118.643 72.0696 120.125 72.0696ZM83.3074 86.5322C83.8082 87.033 84.4892 87.3134 85.1903 87.3134C86.6727 87.3134 87.8545 86.1115 87.8545 84.6492C87.8545 83.9482 87.5741 83.2671 87.0733 82.7663L71.9897 67.6627C70.9481 66.6211 69.2655 66.6211 68.2038 67.6627C67.1622 68.7044 67.1622 70.387 68.2038 71.4286L83.3074 86.5322ZM158.825 154.498C157.784 153.457 156.081 153.457 155.039 154.498C153.998 155.54 153.998 157.243 155.039 158.284L170.143 173.388C170.644 173.888 171.325 174.169 172.026 174.169C173.488 174.169 174.69 172.987 174.69 171.505C174.69 170.804 174.41 170.103 173.909 169.602L158.825 154.498ZM87.0733 154.498C86.0316 153.457 84.349 153.457 83.2874 154.498L68.1838 169.602C67.1422 170.643 67.1422 172.326 68.1838 173.368C69.2254 174.409 70.9081 174.409 71.9497 173.368L87.0532 158.264C88.1349 157.242 88.1349 155.54 87.0733 154.498V154.498ZM155.059 86.5322C155.56 87.033 156.241 87.3134 156.942 87.3134C157.643 87.3134 158.324 87.033 158.825 86.5322L172.046 73.3116C173.087 72.2699 173.087 70.5873 172.046 69.5256C171.004 68.484 169.322 68.484 168.28 69.5256L155.059 82.7463C154.018 83.7879 154.018 85.4906 155.059 86.5322ZM164.534 101.736C165.095 103.098 166.657 103.739 168.02 103.178L177.895 99.0918C179.257 98.5309 179.898 96.9685 179.337 95.6063C178.776 94.2442 177.214 93.6032 175.852 94.1641L165.976 98.2505C164.614 98.8113 163.973 100.374 164.534 101.736V101.736ZM186.729 95.2057C187.069 95.2057 187.41 95.1456 187.75 95.0054L198.567 90.5585C199.929 89.9976 200.59 88.4352 200.03 87.073C199.469 85.7109 197.906 85.0499 196.544 85.6107L185.707 90.0577C184.345 90.6186 183.684 92.181 184.245 93.5431C184.666 94.5647 185.647 95.2057 186.729 95.2057ZM138.514 75.7153C139.876 76.2762 141.418 75.6552 141.999 74.2931V74.2731L146.085 64.3976C146.626 63.0155 145.945 61.4731 144.583 60.9322C143.241 60.4114 141.719 61.0324 141.158 62.3545L137.071 72.2299C136.51 73.592 137.151 75.1544 138.514 75.7153V75.7153ZM146.706 55.9845C148.068 56.5454 149.631 55.9044 150.192 54.5423V54.5222L154.639 43.6853C155.2 42.3232 154.539 40.7608 153.176 40.1999C151.814 39.639 150.252 40.3001 149.691 41.6622L145.244 52.4991C144.683 53.8612 145.344 55.4236 146.706 55.9845V55.9845ZM94.1643 64.4177L98.2507 74.2931C98.8116 75.6552 100.374 76.2962 101.736 75.7353C103.098 75.1745 103.739 73.612 103.178 72.2499L99.092 62.3745C98.5311 61.0124 96.9687 60.3714 95.6066 60.9322C94.2445 61.4931 93.5834 63.0556 94.1643 64.4177V64.4177ZM90.078 54.5423C90.6989 55.8844 92.2814 56.4653 93.6235 55.8643C94.8855 55.2834 95.5064 53.8211 95.0257 52.5191L90.5587 41.6822C89.9978 40.3201 88.4354 39.6591 87.0733 40.2199C85.7111 40.7808 85.0501 42.3432 85.611 43.7054L90.078 54.5423ZM62.3747 99.0918L72.2501 103.178C73.5922 103.779 75.1747 103.158 75.7756 101.816C76.3766 100.474 75.7556 98.8915 74.4135 98.2905C74.3735 98.2705 74.3334 98.2705 74.3134 98.2505L64.4179 94.1641C63.0358 93.6633 61.4934 94.3644 60.9926 95.7466C60.4918 97.0486 61.0927 98.5109 62.3747 99.0918ZM41.6825 90.5585L52.5194 95.0054C53.8815 95.5663 55.4239 94.9253 56.0048 93.5632V93.5431C56.5657 92.181 55.9247 90.6186 54.5625 90.0577L43.7256 85.6107C42.3635 85.0499 40.8011 85.7109 40.2402 87.073C39.6593 88.4352 40.3203 89.9976 41.6825 90.5585V90.5585ZM75.7356 138.513C75.1747 137.151 73.6123 136.51 72.2501 137.071L62.3747 141.157C60.9926 141.698 60.3316 143.241 60.8724 144.623C61.4132 146.005 62.9556 146.666 64.3378 146.125C64.3578 146.105 64.3979 146.105 64.4179 146.085L74.2933 141.999C75.6354 141.438 76.2965 139.875 75.7356 138.513V138.513ZM52.4993 145.244L41.6624 149.691C40.3003 150.252 39.6393 151.814 40.2001 153.176C40.761 154.538 42.3235 155.199 43.6856 154.638L54.5225 150.171C55.9046 149.631 56.5857 148.088 56.0449 146.726C55.504 145.364 53.9616 144.663 52.5995 145.184C52.5795 145.204 52.5394 145.224 52.4993 145.244V145.244ZM101.736 164.534C100.374 163.973 98.8116 164.614 98.2507 165.976L94.1643 175.832C93.6035 177.194 94.2445 178.756 95.6066 179.317C96.9687 179.878 98.5311 179.237 99.092 177.875L103.178 167.999C103.739 166.657 103.098 165.095 101.736 164.534V164.534ZM93.5434 184.265C92.1812 183.704 90.6188 184.365 90.0579 185.727L85.611 196.564C85.0501 197.926 85.7111 199.488 87.0733 200.049C88.4354 200.61 89.9978 199.949 90.5587 198.587L95.0056 187.75C95.5665 186.388 94.9055 184.826 93.5434 184.265ZM146.105 175.832L142.019 165.956C141.418 164.614 139.856 163.993 138.493 164.594C137.191 165.175 136.57 166.677 137.091 167.999L141.178 177.875C141.739 179.237 143.301 179.878 144.663 179.317C146.005 178.756 146.666 177.194 146.105 175.832V175.832ZM150.172 185.707C149.551 184.365 147.968 183.764 146.626 184.385C145.344 184.966 144.743 186.448 145.244 187.77L149.711 198.427C150.272 199.789 151.854 200.43 153.196 199.869C154.539 199.308 155.2 197.726 154.639 196.384L150.172 185.707V185.707ZM177.895 141.157L168.02 137.071C166.657 136.51 165.095 137.151 164.534 138.513C163.973 139.875 164.614 141.438 165.976 141.999L175.852 146.085C177.214 146.646 178.756 146.025 179.337 144.663V144.643C179.898 143.281 179.257 141.718 177.895 141.157ZM198.567 149.691L187.73 145.244C186.368 144.683 184.806 145.344 184.245 146.706C183.684 148.068 184.345 149.631 185.707 150.191L196.544 154.638C197.906 155.199 199.469 154.538 200.03 153.176C200.59 151.814 199.929 150.252 198.567 149.691Z" fill="white"/>
<path d="M98.9125 118.731L122.179 120.407L125.516 127.364L110.005 126.246L116.678 140.16L108.923 139.601L98.9125 118.731Z" fill="#E5ECF2"/>
<path d="M116.679 140.159L110.109 126.463L117.839 126.968L121.123 133.816L116.679 140.159Z" fill="white"/>
<path d="M98.9856 118.883L103.394 112.463L126.692 114.204L122.284 120.624L98.9856 118.883Z" fill="#BFC8DB"/>
<path d="M122.186 120.421L126.619 114.052L129.928 120.951L125.495 127.32L122.186 120.421Z" fill="white"/>
<path d="M123.261 107.052L133.272 127.922L140.723 128.627L130.712 107.756L123.261 107.052Z" fill="#E5ECF2"/>
<path d="M135.131 101.358L130.712 107.756L140.723 128.627L145.142 122.229L135.131 101.358Z" fill="white"/>
<path d="M127.59 100.857L135.204 101.511L130.948 107.857L123.334 107.204L127.59 100.857Z" fill="#BFC8DB"/>
<defs>
<linearGradient id="paint0_linear_24_334" x1="120.5" y1="83" x2="120.5" y2="158" gradientUnits="userSpaceOnUse">
<stop stop-color="#1B9FFF"/>
<stop offset="1" stop-color="#C640C9"/>
</linearGradient>
</defs>
</svg>
