<svg width="240" height="240" viewBox="0 0 240 240" fill="none" xmlns="http://www.w3.org/2000/svg">
<path d="M175.833 41H64.1667C58.025 41 53 46.0464 53 52.2143V85.8571C53 88.4035 53.8581 90.7573 55.2958 92.6451C55.6124 93.0705 55.9587 93.4728 56.3322 93.8487L81.8746 119.5L56.3322 145.151C55.9587 145.527 55.6124 145.929 55.2958 146.355C53.8581 148.243 53 150.597 53 153.143V186.786C53 192.954 58.025 198 64.1667 198H175.833C181.975 198 187 192.954 187 186.786V153.143C187 150.597 186.142 148.243 184.704 146.355C184.388 145.929 184.041 145.527 183.668 145.151L158.125 119.5L183.668 93.8487C184.041 93.4728 184.388 93.0705 184.704 92.6451C186.142 90.7573 187 88.4035 187 85.8571V52.2143C187 46.0464 181.975 41 175.833 41ZM170.25 83.8403L142.35 111.508C140.164 113.705 139.079 116.605 139.095 119.5C139.079 122.395 140.164 125.295 142.35 127.492L170.25 155.685V181.179H69.75V155.685L97.4751 127.492C99.662 125.295 100.746 122.395 100.731 119.5C100.746 116.605 99.662 113.705 97.4751 111.508L69.75 82.789V57.8214H170.25V83.8403Z" fill="white" fill-opacity="0.75"/>
<path d="M113.79 110.332C116.511 113.382 121.148 120.351 115.313 127.808L82.6728 160.448C82.533 160.588 82.4008 160.735 82.2767 160.889C81.48 161.854 81 163.088 81 164.429C81 167.493 83.5071 170 86.5714 170H153.429C156.493 170 159 167.493 159 164.429C159 163.088 158.52 161.854 157.723 160.889C157.599 160.735 157.467 160.588 157.327 160.448L125.869 128.99C123.081 125.708 118.953 118.828 124.986 111.537L135.152 101.528C137.319 99.3614 137.319 95.8157 135.152 93.649C134.485 92.9809 133.657 92.4953 132.748 92.2384C132.228 92.0802 131.687 91.9999 131.143 92H109.031C108.807 92 108.587 92.015 108.369 92.0409C107.084 92.1363 105.825 92.6714 104.848 93.649C102.681 95.8157 102.681 99.3614 104.848 101.528L113.79 110.332V110.332Z" fill="white" fill-opacity="0.75"/>
</svg>
