<svg width="240" height="240" viewBox="0 0 240 240" fill="none" xmlns="http://www.w3.org/2000/svg">
<path d="M62.4847 183.867C61.3054 183.869 60.1374 183.637 59.0479 183.186C57.9584 182.735 56.9688 182.073 56.136 181.238C52.6301 177.731 52.6301 172.047 56.136 168.54L169.879 54.7979C173.386 51.2921 179.071 51.2928 182.576 54.7979C186.083 58.3045 186.083 63.9888 182.576 67.4953L68.8334 181.238C68.0005 182.073 67.0109 182.735 65.9214 183.186C64.8319 183.637 63.6639 183.869 62.4847 183.867V183.867Z" fill="white" fill-opacity="0.75"/>
<path d="M160.022 192.906C142.39 192.906 128.045 178.56 128.045 160.928C128.045 143.296 142.39 128.95 160.022 128.95C177.655 128.95 192 143.296 192 160.928C192 178.56 177.655 192.906 160.022 192.906V192.906ZM160.022 146.906C152.291 146.906 146.001 153.196 146.001 160.927C146.001 168.659 152.291 174.949 160.022 174.949C167.754 174.949 174.044 168.659 174.044 160.927C174.044 153.196 167.754 146.906 160.022 146.906V146.906ZM79.3207 110.378C61.6881 110.378 47.343 96.0333 47.343 78.4007C47.343 60.7681 61.6881 46.423 79.3207 46.423C96.9533 46.423 111.298 60.7681 111.298 78.4007C111.298 96.0333 96.9533 110.378 79.3207 110.378ZM79.3207 64.3795C71.5893 64.3795 65.2995 70.6693 65.2995 78.4007C65.2995 86.132 71.5893 92.4218 79.3207 92.4218C87.0521 92.4218 93.3419 86.132 93.3419 78.4007C93.3419 70.6693 87.0521 64.3795 79.3207 64.3795Z" fill="white" fill-opacity="0.75"/>
</svg>
