<svg width="240" height="240" viewBox="0 0 240 240" fill="none" xmlns="http://www.w3.org/2000/svg">
<path d="M168.24 199.31H71.51C54.13 199.31 40 185.18 40 167.8V71.51C40 54.13 54.13 40 71.51 40H168.25C185.62 40 199.76 54.13 199.76 71.51V167.8C199.75 185.18 185.62 199.31 168.24 199.31V199.31ZM71.51 52C60.75 52 52 60.75 52 71.51V167.8C52 178.56 60.75 187.31 71.51 187.31H168.25C179.01 187.31 187.76 178.56 187.76 167.8V71.51C187.76 60.75 179.01 52 168.25 52H71.51Z" fill="white" fill-opacity="0.75"/>
<path d="M167.6 95.8H133.12C129.81 95.8 127.12 93.11 127.12 89.8C127.12 86.49 129.81 83.8 133.12 83.8H167.6C170.91 83.8 173.6 86.49 173.6 89.8C173.6 93.11 170.91 95.8 167.6 95.8V95.8ZM167.6 142.6H133.12C129.81 142.6 127.12 139.91 127.12 136.6C127.12 133.29 129.81 130.6 133.12 130.6H167.6C170.91 130.6 173.6 133.29 173.6 136.6C173.6 139.91 170.91 142.6 167.6 142.6ZM167.6 165.34H133.12C129.81 165.34 127.12 162.65 127.12 159.34C127.12 156.03 129.81 153.34 133.12 153.34H167.6C170.91 153.34 173.6 156.03 173.6 159.34C173.6 162.65 170.91 165.34 167.6 165.34ZM108.89 84.8H96.34V72.25C96.34 68.94 93.65 66.25 90.34 66.25C87.03 66.25 84.34 68.94 84.34 72.25V84.8H71.79C68.48 84.8 65.79 87.49 65.79 90.8C65.79 94.11 68.48 96.8 71.79 96.8H84.34V109.35C84.34 112.66 87.03 115.35 90.34 115.35C93.65 115.35 96.34 112.66 96.34 109.35V96.8H108.89C112.2 96.8 114.89 94.11 114.89 90.8C114.89 87.49 112.2 84.8 108.89 84.8ZM107.7 132.92C105.36 130.58 101.56 130.58 99.21 132.92L90.34 141.79L81.47 132.92C79.13 130.58 75.33 130.58 72.98 132.92C70.64 135.26 70.64 139.06 72.98 141.41L81.85 150.28L72.98 159.16C70.64 161.5 70.64 165.3 72.98 167.65C73.5365 168.207 74.1974 168.65 74.9249 168.951C75.6525 169.253 76.4324 169.408 77.22 169.408C78.0077 169.408 78.7876 169.253 79.5151 168.951C80.2427 168.65 80.9036 168.207 81.46 167.65L90.33 158.78L99.2 167.65C99.7565 168.207 100.417 168.65 101.145 168.951C101.872 169.253 102.652 169.408 103.44 169.408C104.228 169.408 105.008 169.253 105.735 168.951C106.463 168.65 107.124 168.207 107.68 167.65C110.02 165.31 110.02 161.51 107.68 159.16L98.81 150.28L107.68 141.41C108.24 140.855 108.685 140.194 108.989 139.466C109.293 138.739 109.451 137.958 109.453 137.169C109.455 136.38 109.301 135.599 109 134.87C108.699 134.141 108.257 133.478 107.7 132.92V132.92Z" fill="white" fill-opacity="0.75"/>
</svg>
