<svg width="240" height="240" viewBox="0 0 240 240" fill="none" xmlns="http://www.w3.org/2000/svg">
<path d="M172.714 141.786C169.021 141.786 165.594 142.818 162.566 144.478L139.509 127.508C140.28 125.305 140.786 122.969 140.786 120.5C140.786 119.755 140.642 119.053 140.568 118.324L161.864 105.541C164.801 108.306 168.681 109.849 172.714 109.857C175.872 109.857 178.958 108.921 181.584 107.167C184.209 105.412 186.255 102.919 187.463 100.002C188.672 97.085 188.988 93.8752 188.372 90.7784C187.756 87.6816 186.235 84.837 184.003 82.6044C181.77 80.3718 178.926 78.8513 175.829 78.2353C172.732 77.6193 169.522 77.9355 166.605 79.1438C163.688 80.3521 161.195 82.3983 159.44 85.0236C157.686 87.6489 156.75 90.7354 156.75 93.8929C156.75 94.6379 156.872 95.3509 156.968 96.0693L136.789 108.176C133.887 104.121 129.65 101.216 124.821 99.9699V87.8158C133.974 85.4371 140.786 77.1729 140.786 67.2857C140.786 55.5466 131.239 46 119.5 46C107.761 46 98.2143 55.5466 98.2143 67.2857C98.2143 77.1729 105.026 85.4371 114.179 87.8158V99.9699C108.987 101.313 104.494 104.567 101.599 109.08L81.8828 97.2507C82.5774 94.0225 82.2538 90.6583 80.9566 87.6217C79.6595 84.5851 77.4526 82.0254 74.6401 80.2953C71.8276 78.5652 68.5477 77.7498 65.2524 77.9614C61.9572 78.173 58.8086 79.4013 56.2405 81.477C53.6724 83.5527 51.8111 86.3737 50.9131 89.5513C50.0151 92.7289 50.1245 96.1068 51.2263 99.2196C52.3281 102.332 54.368 105.027 57.0651 106.932C59.7622 108.837 62.9836 109.859 66.2857 109.857C69.9168 109.844 73.4326 108.581 76.2421 106.281L98.3101 119.526C98.2994 119.856 98.2143 120.165 98.2143 120.5C98.2143 122.974 98.7198 125.311 99.4968 127.519L76.6944 144.622C73.5315 142.785 69.9432 141.808 66.2857 141.786C54.5466 141.786 45 151.332 45 163.071C45 174.811 54.5466 184.357 66.2857 184.357C78.0248 184.357 87.5714 174.811 87.5714 163.071C87.5714 159.048 86.3848 155.329 84.4424 152.115L105.446 136.363C107.947 138.587 110.94 140.186 114.179 141.03V164.051C111.072 165.141 108.381 167.167 106.475 169.851C104.568 172.535 103.542 175.744 103.536 179.036C103.536 183.27 105.218 187.33 108.212 190.324C111.205 193.318 115.266 195 119.5 195C123.734 195 127.795 193.318 130.788 190.324C133.782 187.33 135.464 183.27 135.464 179.036C135.458 175.744 134.432 172.535 132.525 169.851C130.619 167.167 127.928 165.141 124.821 164.051V141.03C128.065 140.188 131.062 138.586 133.565 136.358L154.68 151.896C152.568 155.242 151.441 159.115 151.429 163.071C151.429 174.811 160.975 184.357 172.714 184.357C184.453 184.357 194 174.811 194 163.071C194 151.332 184.453 141.786 172.714 141.786ZM108.857 67.2857C108.857 61.4162 113.63 56.6429 119.5 56.6429C125.37 56.6429 130.143 61.4162 130.143 67.2857C130.143 73.1553 125.37 77.9286 119.5 77.9286C113.63 77.9286 108.857 73.1553 108.857 67.2857ZM66.2857 173.714C60.4162 173.714 55.6429 168.941 55.6429 163.071C55.6429 157.202 60.4162 152.429 66.2857 152.429C72.1553 152.429 76.9286 157.202 76.9286 163.071C76.9286 168.941 72.1553 173.714 66.2857 173.714ZM119.5 131.143C113.63 131.143 108.857 126.37 108.857 120.5C108.857 114.63 113.63 109.857 119.5 109.857C125.37 109.857 130.143 114.63 130.143 120.5C130.143 126.37 125.37 131.143 119.5 131.143ZM172.714 173.714C166.845 173.714 162.071 168.941 162.071 163.071C162.071 157.202 166.845 152.429 172.714 152.429C178.584 152.429 183.357 157.202 183.357 163.071C183.357 168.941 178.584 173.714 172.714 173.714Z" fill="white" fill-opacity="0.75"/>
</svg>
